<?xml version="1.0" encoding="UTF-8"?>
<svg id="Capa_1" data-name="Capa 1" xmlns="http://www.w3.org/2000/svg" xmlns:xlink="http://www.w3.org/1999/xlink" viewBox="0 0 1334.25 279.31">
  <defs>
    <style>
      .cls-1 {
        fill: url(#Degradado_sin_nombre_34);
      }

      .cls-2 {
        fill: url(#Degradado_sin_nombre_36);
      }

      .cls-3 {
        fill: url(#Degradado_sin_nombre_31);
      }
    </style>
    <linearGradient id="Degradado_sin_nombre_36" data-name="Degradado sin nombre 36" x1="100.13" y1="75.63" x2="137.59" y2="139.93" gradientTransform="translate(0 282.02) scale(1 -1)" gradientUnits="userSpaceOnUse">
      <stop offset="0" stop-color="#000" stop-opacity=".96"/>
      <stop offset="1" stop-color="#000" stop-opacity="0"/>
    </linearGradient>
    <linearGradient id="Degradado_sin_nombre_34" data-name="Degradado sin nombre 34" x1="99.1" y1="226.16" x2="136.38" y2="162.71" gradientTransform="translate(0 282.02) scale(1 -1)" gradientUnits="userSpaceOnUse">
      <stop offset="0" stop-color="#000"/>
      <stop offset="1" stop-color="#000" stop-opacity="0"/>
    </linearGradient>
    <linearGradient id="Degradado_sin_nombre_31" data-name="Degradado sin nombre 31" x1="1585.55" y1="150.21" x2="1704.81" y2="150.21" gradientTransform="translate(1854.5444 282.02) rotate(-180)" gradientUnits="userSpaceOnUse">
      <stop offset="0" stop-color="#000"/>
      <stop offset="1" stop-color="#000" stop-opacity="0"/>
    </linearGradient>
  </defs>
  <g>
    <path d="M195.9,19.92l-58.8,103.2-117.9-.31s3.37-10.41,5.82-14.09,40.42-69.52,40.42-69.52c0,0,6.74-8.57,7.96-9.49l15.31-8.88s11.02-2.14,13.47-1.84,84.22-.92,84.22-.92c0,0,5.82.61,7.66,1.22s-1.84-18.68-1.84-18.68l-96.47-.61s-33.69,5.82-44.4,26.03C40.64,46.24,5.73,105.97,5.73,105.97c0,0-11.33,26.64-2.14,47.47,9.19,20.83,48.69,85.44,48.69,85.44,0,0,17.76,22.97,38.59,24.5,20.82,1.53,96.77.61,96.77.61,0,0,31.85-.92,46.55-28.17l44.1-75.95s14.09-28.17.31-54.82c-13.78-26.64-46.55-80.23-46.55-80.23l-20.82,4.59s7.04,6.74,10.11,12.56c3.06,5.82,41.04,70.13,41.04,70.13,0,0,11.33,17.15-.31,40.12-11.64,22.97-45.32,77.17-45.32,77.17,0,0-7.35,13.47-26.34,16.23-18.99,2.76-93.71.92-93.71.92,0,0-18.68-3.67-28.79-16.54l-45.94-80.54s-1.84-5.82-2.45-8.27h117.29l57.88,99.22,15.62-8.57-57.57-99.53,56.96-99.53-13.78-12.86h-.02Z"/>
    <path d="M192.23.62s26.58,4.2,39.81,24.19l-1.33,9.78-19.5-5.19-2.25,4.24-13.06-13.73-1.84-.61-5.15-10.99,3.31-7.69h0Z"/>
    <polygon points="193.25 238.2 198.62 246.77 214.88 238.06 209.36 229.93 193.25 238.2"/>
  </g>
  <path class="cls-2" d="M72.28,235.23l58.46-100.34c5.32,2.82,10.64,5.65,15.95,8.47-19.42,34.02-38.84,68.05-58.26,102.07l-16.16-10.2h.01Z"/>
  <polygon class="cls-1" points="88.05 18.17 144.54 118.39 130.04 126.61 70.95 26.83 88.05 18.17"/>
  <polygon class="cls-3" points="149.95 122.93 149.73 141.33 268.56 141.55 268.99 122.07 149.95 122.93"/>
  <path d="M354.87,39.86h90.41c16.68,0,30.05,3.82,40.12,11.46,10.07,7.65,15.11,19.19,15.11,34.65,0,9.38-2.3,17.42-6.91,24.1-4.6,6.69-11.16,11.86-19.67,15.5v.52c11.46,2.43,20.15,7.86,26.05,16.28,5.9,8.43,8.86,18.98,8.86,31.66,0,7.29-1.3,14.11-3.91,20.45-2.61,6.34-6.69,11.81-12.24,16.41-5.56,4.6-12.68,8.25-21.37,10.94s-19.02,4.04-31,4.04h-85.46V39.86h.01ZM387.44,117.77h53.15c7.82,0,14.33-2.21,19.54-6.64,5.21-4.43,7.82-10.81,7.82-19.15,0-9.38-2.35-15.98-7.04-19.8-4.69-3.82-11.46-5.73-20.32-5.73h-53.15v51.33h0ZM387.44,199.32h57.58c9.9,0,17.59-2.56,23.06-7.69,5.47-5.12,8.21-12.38,8.21-21.75s-2.74-16.28-8.21-21.23-13.16-7.43-23.06-7.43h-57.58v58.1Z"/>
  <path d="M525.79,39.86h29.7v186.03h-29.7V39.86Z"/>
  <path d="M563.83,91.19h32.57l35.17,100.57h.52l34.13-100.57h31l-52.37,142c-2.43,6.08-4.82,11.9-7.17,17.46-2.34,5.56-5.21,10.46-8.6,14.72-3.39,4.25-7.6,7.64-12.64,10.16-5.04,2.52-11.46,3.78-19.28,3.78-6.95,0-13.81-.52-20.58-1.56v-25.01c2.43.35,4.78.74,7.04,1.17,2.25.43,4.6.65,7.03.65,3.47,0,6.34-.44,8.6-1.3,2.25-.87,4.12-2.13,5.6-3.78,1.47-1.65,2.74-3.61,3.78-5.86,1.04-2.26,2-4.86,2.87-7.82l3.39-10.42-51.07-134.18h.01Z"/>
  <path d="M704.78,91.19h28.14v19.8l.52.52c4.51-7.47,10.42-13.33,17.72-17.59,7.3-4.25,15.37-6.38,24.23-6.38,14.76,0,26.4,3.82,34.91,11.46,8.51,7.64,12.77,19.11,12.77,34.39v92.49h-29.7v-84.68c-.35-10.59-2.61-18.28-6.77-23.06-4.17-4.78-10.68-7.17-19.54-7.17-5.04,0-9.55.91-13.55,2.74-4,1.82-7.38,4.34-10.16,7.56-2.78,3.22-4.95,6.99-6.51,11.33s-2.34,8.95-2.34,13.81v79.47h-29.7V91.19h-.02Z"/>
  <path d="M972.09,225.89h-28.14v-18.24h-.52c-4,7.82-9.82,13.42-17.46,16.81-7.65,3.39-15.72,5.08-24.23,5.08-10.6,0-19.85-1.87-27.75-5.6-7.91-3.73-14.46-8.81-19.67-15.24-5.21-6.42-9.12-14.02-11.72-22.8-2.61-8.77-3.91-18.19-3.91-28.27,0-12.16,1.65-22.67,4.95-31.53s7.69-16.15,13.16-21.89c5.47-5.73,11.72-9.94,18.76-12.64,7.03-2.69,14.2-4.04,21.49-4.04,4.17,0,8.42.39,12.77,1.17,4.34.78,8.51,2.04,12.51,3.78,3.99,1.74,7.69,3.95,11.07,6.64,3.39,2.7,6.21,5.86,8.47,9.51h.52V39.86h29.7v186.03h0ZM868.4,159.97c0,5.73.74,11.38,2.21,16.93,1.47,5.56,3.73,10.51,6.77,14.85,3.04,4.34,6.9,7.82,11.59,10.42,4.69,2.61,10.25,3.91,16.67,3.91s12.29-1.39,17.07-4.17c4.77-2.78,8.68-6.42,11.72-10.94,3.04-4.51,5.3-9.59,6.77-15.24,1.47-5.64,2.21-11.42,2.21-17.33,0-14.94-3.35-26.58-10.03-34.91-6.69-8.34-15.76-12.51-27.23-12.51-6.95,0-12.81,1.43-17.59,4.3s-8.69,6.6-11.72,11.2c-3.04,4.6-5.21,9.81-6.51,15.63-1.3,5.82-1.95,11.77-1.95,17.85h.02Z"/>
  <path d="M981.73,91.19h22.41v-40.38h29.7v40.38h26.84v22.15h-26.84v71.91c0,3.13.13,5.82.39,8.08s.87,4.17,1.82,5.73,2.39,2.74,4.3,3.52,4.51,1.17,7.82,1.17c2.08,0,4.17-.04,6.25-.13,2.08-.09,4.17-.39,6.25-.91v22.93c-3.3.35-6.51.69-9.64,1.04-3.13.35-6.34.52-9.64.52-7.82,0-14.11-.74-18.89-2.21s-8.51-3.65-11.2-6.51c-2.7-2.87-4.52-6.47-5.47-10.81-.96-4.34-1.52-9.29-1.69-14.85v-79.47h-22.41v-22.15h0Z"/>
  <path d="M1096.11,166.23c0,5.21.74,10.25,2.21,15.11s3.69,9.12,6.64,12.77c2.95,3.65,6.68,6.56,11.2,8.73,4.51,2.17,9.9,3.26,16.15,3.26,8.68,0,15.67-1.86,20.97-5.6,5.3-3.73,9.25-9.33,11.86-16.8h28.14c-1.56,7.29-4.26,13.81-8.08,19.54s-8.43,10.55-13.81,14.46c-5.39,3.91-11.42,6.86-18.11,8.86s-13.68,3-20.97,3c-10.6,0-19.98-1.74-28.14-5.21-8.17-3.47-15.07-8.34-20.71-14.59-5.65-6.25-9.9-13.72-12.77-22.41-2.87-8.68-4.3-18.24-4.3-28.66,0-9.55,1.52-18.63,4.56-27.23,3.04-8.6,7.38-16.15,13.03-22.67,5.64-6.51,12.46-11.68,20.45-15.5s17.02-5.73,27.1-5.73c10.59,0,20.1,2.21,28.53,6.64,8.42,4.43,15.41,10.29,20.97,17.59,5.56,7.29,9.6,15.68,12.12,25.14,2.52,9.47,3.17,19.24,1.95,29.31h-99.01.02ZM1165.42,146.69c-.35-4.69-1.35-9.2-3-13.55-1.65-4.34-3.91-8.12-6.77-11.33-2.87-3.21-6.34-5.82-10.42-7.82-4.08-1.99-8.64-3-13.68-3s-9.95.91-14.2,2.74c-4.26,1.82-7.91,4.34-10.94,7.56-3.04,3.22-5.47,6.99-7.29,11.33-1.82,4.34-2.83,9.03-3,14.07h69.3Z"/>
  <path d="M1209.45,39.86h29.7v105.78l53.67-54.45h36.48l-51.59,49.5,56.54,85.2h-36.22l-41.17-65.4-17.72,17.2v48.2h-29.7V39.86h0Z"/>
</svg>