<?xml version="1.0" encoding="UTF-8"?>
<svg xmlns="http://www.w3.org/2000/svg" viewBox="0 0 320 280" fill="none" aria-hidden="true">
  <path
    fill="#0B0E14"
    d="M195.9,19.92l-58.8,103.2-117.9-.31s3.37-10.41,5.82-14.09,40.42-69.52,40.42-69.52c0,0,6.74-8.57,7.96-9.49l15.31-8.88s11.02-2.14,13.47-1.84,84.22-.92,84.22-.92c0,0,5.82.61,7.66,1.22s-1.84-18.68-1.84-18.68l-96.47-.61s-33.69,5.82-44.4,26.03C40.64,46.24,5.73,105.97,5.73,105.97c0,0-11.33,26.64-2.14,47.47,9.19,20.83,48.69,85.44,48.69,85.44,0,0,17.76,22.97,38.59,24.5,20.82,1.53,96.77.61,96.77.61,0,0,31.85-.92,46.55-28.17l44.1-75.95s14.09-28.17.31-54.82c-13.78-26.64-46.55-80.23-46.55-80.23l-20.82,4.59s7.04,6.74,10.11,12.56c3.06,5.82,41.04,70.13,41.04,70.13,0,0,11.33,17.15-.31,40.12-11.64,22.97-45.32,77.17-45.32,77.17,0,0-7.35,13.47-26.34,16.23-18.99,2.76-93.71.92-93.71.92,0,0-18.68-3.67-28.79-16.54l-45.94-80.54s-1.84-5.82-2.45-8.27h117.29l57.88,99.22,15.62-8.57-57.57-99.53,56.96-99.53-13.78-12.86Z"
  />
  <path
    fill="#0B0E14"
    d="M192.23.62s26.58,4.2,39.81,24.19l-1.33,9.78-19.5-5.19-2.25,4.24-13.06-13.73-1.84-.61-5.15-10.99,3.31-7.69h0Z"
  />
  <polygon
    fill="#0B0E14"
    points="193.25 238.2 198.62 246.77 214.88 238.06 209.36 229.93 193.25 238.2"
  />
</svg>
